<?xml version="1.0" encoding="UTF-8" standalone="no"?>
<!DOCTYPE svg PUBLIC "-//W3C//DTD SVG 1.1//EN"
 "http://www.w3.org/Graphics/SVG/1.1/DTD/svg11.dtd">
<!-- Generated by graphviz version 14.1.1 (20251213.1925)
 -->
<!-- Title: G Pages: 1 -->
<svg width="1216pt" height="1703pt"
 viewBox="0.00 0.00 1216.00 1703.00" xmlns="http://www.w3.org/2000/svg" xmlns:xlink="http://www.w3.org/1999/xlink">
<g id="graph0" class="graph" transform="scale(3.05556 3.05556) rotate(0) translate(12.96 544.46)">
<title>G</title>
<polygon fill="white" stroke="none" points="-12.96,12.96 -12.96,-544.46 384.87,-544.46 384.87,12.96 -12.96,12.96"/>
<!-- path -->
<g id="node1" class="node">
<title>path</title>
<path fill="#f5f8fa" stroke="#43576a" stroke-width="1.1" d="M245.29,-531.5C245.29,-531.5 160.75,-531.5 160.75,-531.5 154.75,-531.5 148.75,-525.5 148.75,-519.5 148.75,-519.5 148.75,-507.5 148.75,-507.5 148.75,-501.5 154.75,-495.5 160.75,-495.5 160.75,-495.5 245.29,-495.5 245.29,-495.5 251.29,-495.5 257.29,-501.5 257.29,-507.5 257.29,-507.5 257.29,-519.5 257.29,-519.5 257.29,-525.5 251.29,-531.5 245.29,-531.5"/>
<text xml:space="preserve" text-anchor="middle" x="203.02" y="-509.57" font-family="Microsoft YaHei" font-size="14.00">候选有向路径</text>
</g>
<!-- owners -->
<g id="node2" class="node">
<title>owners</title>
<path fill="#f5f8fa" stroke="#43576a" stroke-width="1.1" d="M295.16,-464.5C295.16,-464.5 110.88,-464.5 110.88,-464.5 104.88,-464.5 98.88,-458.5 98.88,-452.5 98.88,-452.5 98.88,-440.5 98.88,-440.5 98.88,-434.5 104.88,-428.5 110.88,-428.5 110.88,-428.5 295.16,-428.5 295.16,-428.5 301.16,-428.5 307.16,-434.5 307.16,-440.5 307.16,-440.5 307.16,-452.5 307.16,-452.5 307.16,-458.5 301.16,-464.5 295.16,-464.5"/>
<text xml:space="preserve" text-anchor="middle" x="203.02" y="-442.57" font-family="Microsoft YaHei" font-size="14.00">关联规则与动作的完整表达式</text>
</g>
<!-- path&#45;&gt;owners -->
<g id="edge1" class="edge">
<title>path&#45;&gt;owners</title>
<path fill="none" stroke="#526575" d="M203.02,-495.08C203.02,-488.23 203.02,-480.24 203.02,-472.77"/>
<polygon fill="#526575" stroke="#526575" points="205.3,-472.98 203.02,-466.48 200.75,-472.98 205.3,-472.98"/>
</g>
<!-- ands -->
<g id="node3" class="node">
<title>ands</title>
<path fill="#f5f8fa" stroke="#43576a" stroke-width="1.1" d="M273.04,-397.5C273.04,-397.5 133,-397.5 133,-397.5 127,-397.5 121,-391.5 121,-385.5 121,-385.5 121,-357.6 121,-357.6 121,-351.6 127,-345.6 133,-345.6 133,-345.6 273.04,-345.6 273.04,-345.6 279.04,-345.6 285.04,-351.6 285.04,-357.6 285.04,-357.6 285.04,-385.5 285.04,-385.5 285.04,-391.5 279.04,-397.5 273.04,-397.5"/>
<text xml:space="preserve" text-anchor="middle" x="203.02" y="-377" font-family="Microsoft YaHei" font-size="14.00">AND 必要条件集合</text>
<text xml:space="preserve" text-anchor="middle" x="203.02" y="-358.25" font-family="Microsoft YaHei" font-size="14.00">OR / NOT 保持原逻辑</text>
</g>
<!-- owners&#45;&gt;ands -->
<g id="edge2" class="edge">
<title>owners&#45;&gt;ands</title>
<path fill="none" stroke="#526575" d="M203.02,-428.21C203.02,-421.45 203.02,-413.46 203.02,-405.67"/>
<polygon fill="#526575" stroke="#526575" points="205.3,-406.02 203.02,-399.52 200.75,-406.02 205.3,-406.02"/>
</g>
<!-- refs -->
<g id="node4" class="node">
<title>refs</title>
<path fill="#f5f8fa" stroke="#43576a" stroke-width="1.1" d="M216.92,-314.6C216.92,-314.6 61.12,-314.6 61.12,-314.6 55.12,-314.6 49.13,-308.6 49.13,-302.6 49.13,-302.6 49.13,-274.7 49.13,-274.7 49.13,-268.7 55.13,-262.7 61.13,-262.7 61.13,-262.7 216.92,-262.7 216.92,-262.7 222.92,-262.7 228.92,-268.7 228.92,-274.7 228.92,-274.7 228.92,-302.6 228.92,-302.6 228.92,-308.6 222.92,-314.6 216.92,-314.6"/>
<text xml:space="preserve" text-anchor="middle" x="139.02" y="-294.1" font-family="Microsoft YaHei" font-size="14.00">来源存在且引用逐字匹配</text>
<text xml:space="preserve" text-anchor="middle" x="139.02" y="-275.35" font-family="Microsoft YaHei" font-size="14.00">去重后最多八个条款单元</text>
</g>
<!-- ands&#45;&gt;refs -->
<g id="edge3" class="edge">
<title>ands&#45;&gt;refs</title>
<path fill="none" stroke="#526575" d="M183.12,-345.4C177.04,-337.71 170.27,-329.16 163.9,-321.1"/>
<polygon fill="#526575" stroke="#526575" points="165.88,-319.94 160.07,-316.25 162.31,-322.76 165.88,-319.94"/>
</g>
<!-- gaps -->
<g id="node5" class="node">
<title>gaps</title>
<path fill="none" stroke="#43576a" stroke-width="1.1" stroke-dasharray="5,2" d="M359.91,-231.7C359.91,-231.7 174.12,-231.7 174.12,-231.7 168.12,-231.7 162.12,-225.7 162.12,-219.7 162.12,-219.7 162.12,-191.8 162.12,-191.8 162.12,-185.8 168.12,-179.8 174.12,-179.8 174.12,-179.8 359.91,-179.8 359.91,-179.8 365.91,-179.8 371.91,-185.8 371.91,-191.8 371.91,-191.8 371.91,-219.7 371.91,-219.7 371.91,-225.7 365.91,-231.7 359.91,-231.7"/>
<text xml:space="preserve" text-anchor="middle" x="267.02" y="-211.2" font-family="Microsoft YaHei" font-size="14.00">缺事实 / 缺规则 / 外部待确认</text>
<text xml:space="preserve" text-anchor="middle" x="267.02" y="-192.45" font-family="Microsoft YaHei" font-size="14.00">来源缺失 / 引用不符 / 超预算</text>
</g>
<!-- ands&#45;&gt;gaps -->
<g id="edge6" class="edge">
<title>ands&#45;&gt;gaps</title>
<path fill="none" stroke="#526575" d="M220.24,-345.19C230.3,-330.39 241.02,-314.6 241.02,-314.6 241.02,-314.6 251.4,-271.52 259.05,-239.82"/>
<polygon fill="#526575" stroke="#526575" points="261.26,-240.36 260.57,-233.51 256.83,-239.29 261.26,-240.36"/>
</g>
<!-- refs&#45;&gt;gaps -->
<g id="edge7" class="edge">
<title>refs&#45;&gt;gaps</title>
<path fill="none" stroke="#526575" d="M179.17,-262.27C192.27,-253.99 206.94,-244.72 220.47,-236.17"/>
<polygon fill="#526575" stroke="#526575" points="221.46,-238.24 225.73,-232.84 219.02,-234.39 221.46,-238.24"/>
</g>
<!-- prompt -->
<g id="node6" class="node">
<title>prompt</title>
<path fill="#f5f8fa" stroke="#43576a" stroke-width="1.1" d="M278.04,-134.8C278.04,-134.8 12,-134.8 12,-134.8 6,-134.8 0,-128.8 0,-122.8 0,-122.8 0,-94.9 0,-94.9 0,-88.9 6,-82.9 12,-82.9 12,-82.9 278.04,-82.9 278.04,-82.9 284.04,-82.9 290.04,-88.9 290.04,-94.9 290.04,-94.9 290.04,-122.8 290.04,-122.8 290.04,-128.8 284.04,-134.8 278.04,-134.8"/>
<text xml:space="preserve" text-anchor="middle" x="145.02" y="-114.3" font-family="Microsoft YaHei" font-size="14.00">生成输入</text>
<text xml:space="preserve" text-anchor="middle" x="145.02" y="-95.55" font-family="Microsoft YaHei" font-size="14.00">原文编号 + 证据完整的检查与路径 + 缺口</text>
</g>
<!-- refs&#45;&gt;prompt -->
<g id="edge4" class="edge">
<title>refs&#45;&gt;prompt</title>
<path fill="none" stroke="#526575" d="M139.88,-262.18C140.94,-230.88 142.73,-177.72 143.89,-143.2"/>
<polygon fill="#526575" stroke="#526575" points="146.17,-143.36 144.11,-136.79 141.62,-143.21 146.17,-143.36"/>
</g>
<!-- gaps&#45;&gt;prompt -->
<g id="edge8" class="edge">
<title>gaps&#45;&gt;prompt</title>
<path fill="none" stroke="#526575" d="M234.33,-179.32C218.61,-167.09 199.67,-152.36 183.29,-139.62"/>
<polygon fill="#526575" stroke="#526575" points="185.1,-138.15 178.58,-135.95 182.31,-141.74 185.1,-138.15"/>
<text xml:space="preserve" text-anchor="middle" x="241.45" y="-154.35" font-family="Microsoft YaHei" font-size="11.00">仅缺口提示</text>
</g>
<!-- result -->
<g id="node7" class="node">
<title>result</title>
<path fill="#f5f8fa" stroke="#43576a" stroke-width="1.1" d="M244.29,-51.9C244.29,-51.9 45.75,-51.9 45.75,-51.9 39.75,-51.9 33.75,-45.9 33.75,-39.9 33.75,-39.9 33.75,-12 33.75,-12 33.75,-6 39.75,0 45.75,0 45.75,0 244.29,0 244.29,0 250.29,0 256.29,-6 256.29,-12 256.29,-12 256.29,-39.9 256.29,-39.9 256.29,-45.9 250.29,-51.9 244.29,-51.9"/>
<text xml:space="preserve" text-anchor="middle" x="145.02" y="-31.4" font-family="Microsoft YaHei" font-size="14.00">回答 [S1]…</text>
<text xml:space="preserve" text-anchor="middle" x="145.02" y="-12.65" font-family="Microsoft YaHei" font-size="14.00">路径、规则检查与缺口同时展示</text>
</g>
<!-- prompt&#45;&gt;result -->
<g id="edge5" class="edge">
<title>prompt&#45;&gt;result</title>
<path fill="none" stroke="#526575" d="M145.02,-82.7C145.02,-75.61 145.02,-67.79 145.02,-60.31"/>
<polygon fill="#526575" stroke="#526575" points="147.3,-60.38 145.02,-53.88 142.75,-60.38 147.3,-60.38"/>
</g>
</g>
</svg>
